# xmcd
#
# Track frame offsets:
#	150
#	13575
#	31782
#	50550
#	68340
#	80755
#	95075
#	108230
#	124237
#	138762
#	153055
#	170250
#	189122
#	209607
#
# Disc length: 3145 seconds
#
# Revision: 1
# Processed by: cddbd v1.5.1PL2 Copyright (c) Steve Scherf et al.
# Submitted via: audiograbber 1.83.01
#
DISCID=ac0c470e
DTITLE=Pat Fritz and Band - live
DYEAR=1990
DGENRE=Blues
TTITLE0=She's looking good
TTITLE1=Mama told me not to come
TTITLE2=Just a little bit
TTITLE3=If You were mine
TTITLE4=Respect
TTITLE5=Baby I love You
TTITLE6=I feel the Earth move
TTITLE7=Since You've been gone
TTITLE8=Natural Man
TTITLE9=I say a little Prayer
TTITLE10=Is that it
TTITLE11=Hold on I'm coming
TTITLE12=You keep me hanging on
TTITLE13=Your Song
EXTD=
EXTT0=
EXTT1=
EXTT2=
EXTT3=
EXTT4=
EXTT5=
EXTT6=
EXTT7=
EXTT8=
EXTT9=
EXTT10=
EXTT11=
EXTT12=
EXTT13=
PLAYORDER=
